<svg width="215" height="215" viewBox="0 0 215 215" fill="none" xmlns="http://www.w3.org/2000/svg">
<ellipse cx="107.41" cy="107.41" rx="107.41" ry="107.41" fill="#00C7B1"/>
<path d="M107.412 15.4864C158.185 15.4864 199.345 56.6461 199.346 107.419C199.346 158.192 158.185 199.352 107.412 199.352C56.6391 199.351 15.4794 158.192 15.4794 107.419C15.4796 56.6463 56.6392 15.4866 107.412 15.4864Z" stroke="white" stroke-width="5.06872"/>
<g clip-path="url(#clip0_228_60)">
<path d="M96.1162 176.721C91.6082 175.386 92.9796 168.291 89.797 163.497C78.307 159.689 69.6845 151.943 62.5517 142.231C57.9845 139.535 52.21 144.131 48.7059 140.823C47.6625 139.844 46.4289 137.693 47.6363 135.944L53.7848 127.034C56.5278 123.056 50.1364 112.85 56.2718 91.439C57.5449 86.9872 49.1915 83.5151 51.5144 78.5241C53.8373 73.5331 62.0398 78.4189 65.4652 75.177C69.1596 71.6721 71.8369 67.6214 76.1481 64.7609C79.1207 62.7882 77.7427 52.3655 77.244 48.8014C76.9421 46.6511 77.8936 44.9874 79.3897 44.1326C84.3965 41.2589 89.0949 51.8 94.9351 54.9695C100.723 53.5886 106.202 53.056 112.029 53.49C118.552 53.9766 118.624 39.786 125.901 41.9034C127.017 42.2256 128.421 43.4027 128.729 45.119L130.534 55.1471C130.77 56.4622 131.702 58.2048 133.06 58.698C138.776 60.776 142.739 65.2081 147.943 68.062C151.939 70.2517 162.51 64.9582 165.627 68.325C166.618 69.3969 167.806 71.58 166.579 73.3752L161.008 81.5227C159.157 84.2319 159.702 86.2178 160.962 88.9665C167.393 102.98 166.592 119.038 160.739 133.255C159.918 135.247 158.974 137.108 160.083 139.107L164.079 146.275C165.024 147.971 164.886 149.905 163.98 151.279C159.859 157.533 153.527 146.65 146.768 152.581C136.151 161.892 123.119 167.271 108.873 167.035C104.05 169.915 100.303 177.964 96.1228 176.727L96.1162 176.721ZM93.7211 156.586C96.9693 157.697 97.4811 162.28 98.4786 165.167C100.834 163.155 102.947 159.052 106.734 159.269C120.277 160.044 132.975 155.441 142.765 145.992C145.823 143.039 149.373 141.908 153.986 143.572C150.804 139.482 151.381 135.175 153.337 131.032C160.286 116.348 159.236 100.099 151.362 86.2704C150.509 82.5682 153.56 78.4583 155.056 75.8017C140.39 79.208 146.676 72.448 127.364 64.3072C123.88 62.8342 123.716 57.9812 122.948 54.6605C113.952 66.7205 115.527 57.5933 94.8366 62.7421C90.8666 63.7285 87.9334 59.566 85.2627 57.1132C85.5186 72.9018 78.6482 68.2855 70.5114 81.4569C68.7265 84.3503 65.4783 84.6199 61.843 84.2056C68.4181 95.1149 58.5751 95.0294 61.2196 115.914C62.6173 126.975 64.9993 123.838 57.9517 134.05C72.3422 130.131 66.4889 147.248 93.7277 156.579L93.7211 156.586Z" fill="white"/>
<path d="M112.247 93.3208C114.436 93.3208 116.211 91.5425 116.211 89.349C116.211 87.1554 114.436 85.3772 112.247 85.3772C110.058 85.3772 108.284 87.1554 108.284 89.349C108.284 91.5425 110.058 93.3208 112.247 93.3208Z" fill="white"/>
<path d="M85.6731 115.063C87.8765 115.063 89.6628 113.273 89.6628 111.065C89.6628 108.857 87.8765 107.067 85.6731 107.067C83.4697 107.067 81.6834 108.857 81.6834 111.065C81.6834 113.273 83.4697 115.063 85.6731 115.063Z" fill="white"/>
<path d="M128.537 120.603C130.711 120.603 132.474 118.837 132.474 116.658C132.474 114.479 130.711 112.712 128.537 112.712C126.363 112.712 124.6 114.479 124.6 116.658C124.6 118.837 126.363 120.603 128.537 120.603Z" fill="white"/>
<path d="M105.127 135.973C107.312 135.973 109.084 134.197 109.084 132.007C109.084 129.817 107.312 128.042 105.127 128.042C102.941 128.042 101.17 129.817 101.17 132.007C101.17 134.197 102.941 135.973 105.127 135.973Z" fill="white"/>
</g>
<defs>
<clipPath id="clip0_228_60">
<rect width="119.96" height="135.166" fill="white" transform="translate(47.1237 41.6986)"/>
</clipPath>
</defs>
</svg>
